<svg width="20" height="19" viewBox="0 0 20 19" fill="none" xmlns="http://www.w3.org/2000/svg">
<path d="M3.25 5C3.25 4.58579 3.58579 4.25 4 4.25C4.41421 4.25 4.75 4.58579 4.75 5H3.25ZM8 1.75C7.58579 1.75 7.25 1.41421 7.25 1C7.25 0.585786 7.58579 0.25 8 0.25V1.75ZM4.75 5C4.75 6.79493 6.20507 8.25 8 8.25V9.75C5.37665 9.75 3.25 7.62335 3.25 5H4.75ZM8 8.25C9.79493 8.25 11.25 6.79493 11.25 5H12.75C12.75 7.62335 10.6234 9.75 8 9.75V8.25ZM11.25 5C11.25 3.20507 9.79493 1.75 8 1.75V0.25C10.6234 0.25 12.75 2.37665 12.75 5H11.25Z" fill="#060606"/>
<path d="M1 14.9347C1 14.0743 1.54085 13.3068 2.35109 13.0175V13.0175C6.00404 11.7128 9.99596 11.7128 13.6489 13.0175V13.0175C14.4591 13.3068 15 14.0743 15 14.9347V16.2502C15 17.4376 13.9483 18.3498 12.7728 18.1818L11.8184 18.0455C9.28565 17.6837 6.71435 17.6837 4.18162 18.0455L3.22721 18.1818C2.0517 18.3498 1 17.4376 1 16.2502V14.9347Z" stroke="#060606" stroke-width="1.5"/>
<path d="M15 9H19" stroke="#060606" stroke-width="1.5" stroke-linecap="round" stroke-linejoin="round"/>
<path d="M17 7L17 11" stroke="#060606" stroke-width="1.5" stroke-linecap="round" stroke-linejoin="round"/>
</svg>
