<svg width="21" height="21" viewBox="0 0 21 21" fill="none" xmlns="http://www.w3.org/2000/svg">
<path d="M6.91161 1.55887C6.47813 1.90109 6.40415 2.52992 6.74637 2.96339C7.08859 3.39687 7.71742 3.47085 8.15089 3.12863L6.91161 1.55887ZM4.58839 5.94113C5.02187 5.59891 5.09585 4.97008 4.75363 4.53661C4.41141 4.10313 3.78258 4.02915 3.34911 4.37137L4.58839 5.94113ZM10.5 15C11.0523 15 11.5 14.5523 11.5 14C11.5 13.4477 11.0523 13 10.5 13V15ZM14.5 17C14.5 16.4477 14.0523 16 13.5 16C12.9477 16 12.5 16.4477 12.5 17H14.5ZM12.875 1.875L12.2554 2.65988L12.875 1.875ZM18.4786 6.29888L17.8589 7.08376L18.4786 6.29888ZM19 9.43841V16H21V9.43841H19ZM2 16V9.43841H0V16H2ZM12.2554 2.65988L17.8589 7.08376L19.0982 5.514L13.4946 1.09012L12.2554 2.65988ZM6.5 16V19H8.5V16H6.5ZM6.5 19H5V21H6.5V19ZM16 19H14.5V21H16V19ZM3.14107 7.08376L3.99464 6.40988L2.75536 4.84012L1.90178 5.51399L3.14107 7.08376ZM8.15089 3.12863L8.74464 2.65988L7.50536 1.09012L6.91161 1.55887L8.15089 3.12863ZM3.99464 6.40988L4.58839 5.94113L3.34911 4.37137L2.75536 4.84012L3.99464 6.40988ZM10.5 13H9.5V15H10.5V13ZM14.5 19V17H12.5V19H14.5ZM6.5 19V21C7.60457 21 8.5 20.1046 8.5 19H6.5ZM14.5 19H12.5C12.5 20.1046 13.3954 21 14.5 21V19ZM8.5 16C8.5 15.4477 8.94772 15 9.5 15V13C7.84315 13 6.5 14.3431 6.5 16H8.5ZM13.4946 1.09012C11.7388 -0.296053 9.26117 -0.296054 7.50536 1.09012L8.74464 2.65988C9.77384 1.84736 11.2262 1.84736 12.2554 2.65988L13.4946 1.09012ZM0 16C0 18.7614 2.23858 21 5 21V19C3.34315 19 2 17.6569 2 16H0ZM19 16C19 17.6569 17.6569 19 16 19V21C18.7614 21 21 18.7614 21 16H19ZM21 9.43841C21 7.90817 20.2993 6.4622 19.0982 5.514L17.8589 7.08376C18.5796 7.65268 19 8.52027 19 9.43841H21ZM2 9.43841C2 8.52027 2.42043 7.65268 3.14107 7.08376L1.90178 5.51399C0.700725 6.46219 0 7.90817 0 9.43841H2Z" fill="black"/>
</svg>
