<svg width="22" height="22" viewBox="0 0 22 22" fill="none" xmlns="http://www.w3.org/2000/svg">
<circle r="3" transform="matrix(-1 0 0 1 11.4839 11)" stroke="black" stroke-width="2"/>
<path d="M15.9839 18.0621L15.4839 17.1961H15.4839L15.9839 18.0621ZM6.98388 3.9375L7.48388 4.80353L6.98388 3.9375ZM8.40681 2.01508L7.43255 1.78965L8.40681 2.01508ZM9.02302 1.30504L8.77771 0.335598L9.02302 1.30504ZM2.39027 8.68351L3.02616 7.91173H3.02616L2.39027 8.68351ZM2.04014 7.70287L2.98426 8.03247L2.04014 7.70287ZM4.79571 17.7402L5.02528 18.7135L4.79571 17.7402ZM3.88683 17.503L4.64622 16.8524L3.88683 17.503ZM9.0231 20.695L8.7778 21.6644L9.0231 20.695ZM8.40687 19.9848L9.38115 19.7595L8.40687 19.9848ZM14.5609 19.9848L15.5352 20.2102L14.5609 19.9848ZM13.9447 20.695L13.6994 19.7255L13.9447 20.695ZM19.0809 17.503L18.3215 16.8524L19.0809 17.503ZM18.172 17.7402L17.9424 18.7135L18.172 17.7402ZM20.9275 7.70289L19.9834 8.03248L20.9275 7.70289ZM20.5774 8.68352L21.2133 9.4553L20.5774 8.68352ZM2.04014 14.2971L2.98426 13.9675L2.04014 14.2971ZM2.39027 13.3165L1.75438 12.5447L2.39027 13.3165ZM18.1718 4.2595L18.4013 5.23282L18.1718 4.2595ZM19.0806 4.49671L18.3212 5.14738L19.0806 4.49671ZM3.8871 4.49667L4.64646 5.14735L3.8871 4.49667ZM4.7959 4.25948L4.56639 5.23279L4.7959 4.25948ZM20.5774 13.3165L21.2133 12.5447L20.5774 13.3165ZM20.9275 14.2971L19.9834 13.9675L20.9275 14.2971ZM14.561 2.01511L13.5868 2.24054L14.561 2.01511ZM13.9448 1.30508L13.6995 2.27453L13.9448 1.30508ZM17.3179 3.33323C16.7675 3.28796 16.2846 3.69747 16.2393 4.2479C16.194 4.79832 16.6036 5.28123 17.154 5.3265L17.3179 3.33323ZM13.9584 3.22981C14.219 3.71673 14.825 3.90017 15.3119 3.63953C15.7988 3.3789 15.9823 2.77289 15.7216 2.28597L13.9584 3.22981ZM9.06199 18.8715C8.81538 18.3773 8.21486 18.1766 7.72069 18.4232C7.22653 18.6698 7.02585 19.2704 7.27246 19.7645L9.06199 18.8715ZM5.72188 18.6737C6.27029 18.739 6.76781 18.3473 6.83312 17.7989C6.89843 17.2505 6.5068 16.753 5.95839 16.6877L5.72188 18.6737ZM21.8717 7.37329C21.4156 6.06705 20.7207 4.87392 19.84 3.84604L18.3212 5.14738C19.0428 5.98948 19.611 6.9656 19.9834 8.03248L21.8717 7.37329ZM20.4838 11C20.4838 10.3785 20.7662 9.82372 21.2133 9.4553L19.9415 7.91174C19.053 8.64378 18.4838 9.75584 18.4838 11H20.4838ZM21.2133 12.5447C20.7662 12.1763 20.4838 11.6215 20.4838 11H18.4838C18.4838 12.2442 19.053 13.3562 19.9415 14.0883L21.2133 12.5447ZM19.8402 18.1536C20.7209 17.1258 21.4157 15.9328 21.8717 14.6267L19.9834 13.9675C19.611 15.0343 19.0429 16.0103 18.3215 16.8524L19.8402 18.1536ZM16.4839 18.9282C16.9437 18.6627 17.4628 18.6004 17.9424 18.7135L18.4015 16.7669C17.4457 16.5415 16.4022 16.6659 15.4839 17.1961L16.4839 18.9282ZM15.5352 20.2102C15.6562 19.687 15.9839 19.2168 16.4839 18.9282L15.4839 17.1961C14.4841 17.7734 13.8273 18.7188 13.5866 19.7595L15.5352 20.2102ZM11.4838 22C12.4164 22 13.3232 21.8837 14.19 21.6644L13.6994 19.7255C12.9917 19.9046 12.2496 20 11.4838 20V22ZM8.7778 21.6644C9.64454 21.8837 10.5513 22 11.4838 22V20C10.7181 20 9.97608 19.9046 9.2684 19.7255L8.7778 21.6644ZM1.09601 14.6267C1.55198 15.9328 2.24682 17.1258 3.12745 18.1537L4.64622 16.8524C3.92475 16.0103 3.35667 15.0343 2.98426 13.9675L1.09601 14.6267ZM2.48386 11C2.48386 11.6215 2.20154 12.1763 1.75438 12.5447L3.02616 14.0883C3.91464 13.3562 4.48386 12.2442 4.48386 11H2.48386ZM1.75438 9.45529C2.20154 9.82371 2.48386 10.3785 2.48386 11H4.48386C4.48386 9.75583 3.91464 8.64377 3.02616 7.91173L1.75438 9.45529ZM3.12774 3.846C2.24697 4.87389 1.55204 6.06702 1.09602 7.37327L2.98426 8.03247C3.35671 6.96558 3.92488 5.98945 4.64646 5.14735L3.12774 3.846ZM6.48388 3.07147C6.02412 3.33692 5.50506 3.39928 5.02541 3.28617L4.56639 5.23279C5.5222 5.45817 6.5656 5.33369 7.48388 4.80353L6.48388 3.07147ZM7.43255 1.78965C7.31152 2.31275 6.98378 2.78285 6.48388 3.07147L7.48388 4.80353C8.48357 4.22635 9.14031 3.28107 9.38107 2.24051L7.43255 1.78965ZM11.4838 0C10.5513 0 9.64448 0.116268 8.77771 0.335598L9.26833 2.27449C9.97604 2.09541 10.7181 2 11.4838 2V0ZM14.1901 0.335645C13.3233 0.116284 12.4164 0 11.4838 0V2C12.2496 2 12.9917 2.09542 13.6995 2.27453L14.1901 0.335645ZM9.38107 2.24051C9.38463 2.22513 9.38917 2.21309 9.39288 2.20524C9.39663 2.19733 9.39782 2.19728 9.3932 2.2029C9.38838 2.20877 9.37612 2.22206 9.354 2.23681C9.33103 2.25212 9.30171 2.26604 9.26833 2.27449L8.77771 0.335598C7.96516 0.541208 7.56028 1.23763 7.43255 1.78965L9.38107 2.24051ZM3.02616 7.91173C3.01229 7.9003 3.00159 7.88864 2.99452 7.87922C2.98739 7.86969 2.98713 7.86672 2.98954 7.87288C2.9921 7.87941 2.99839 7.89836 2.99975 7.9286C3.00117 7.96034 2.9967 7.99683 2.98426 8.03247L1.09602 7.37327C0.783087 8.26965 1.27193 9.05779 1.75438 9.45529L3.02616 7.91173ZM4.56614 16.7669C4.55085 16.7705 4.5381 16.7718 4.52948 16.7719C4.52078 16.7721 4.52021 16.771 4.52727 16.7727C4.53462 16.7744 4.55188 16.7795 4.57478 16.7927C4.59856 16.8064 4.62393 16.8264 4.64622 16.8524L3.12745 18.1537C3.67174 18.7889 4.47389 18.8436 5.02528 18.7135L4.56614 16.7669ZM9.2684 19.7255C9.30178 19.734 9.3311 19.7479 9.35408 19.7632C9.3762 19.778 9.38846 19.7913 9.39328 19.7971C9.3979 19.8027 9.39671 19.8027 9.39296 19.7948C9.38924 19.7869 9.38471 19.7749 9.38115 19.7595L7.43259 20.2102C7.56028 20.7623 7.96516 21.4588 8.7778 21.6644L9.2684 19.7255ZM13.5866 19.7595C13.5831 19.7749 13.5785 19.7869 13.5748 19.7948C13.5711 19.8027 13.5699 19.8027 13.5745 19.7971C13.5793 19.7912 13.5916 19.7779 13.6137 19.7632C13.6367 19.7479 13.666 19.734 13.6994 19.7255L14.19 21.6644C15.0026 21.4588 15.4075 20.7622 15.5352 20.2102L13.5866 19.7595ZM18.3215 16.8524C18.3438 16.8263 18.3691 16.8064 18.3929 16.7927C18.4158 16.7794 18.4331 16.7744 18.4404 16.7727C18.4475 16.771 18.4469 16.7721 18.4382 16.7719C18.4296 16.7718 18.4168 16.7705 18.4015 16.7669L17.9424 18.7135C18.4938 18.8435 19.296 18.7889 19.8402 18.1536L18.3215 16.8524ZM19.9834 8.03248C19.971 7.99684 19.9665 7.96036 19.9679 7.92862C19.9693 7.89838 19.9756 7.87942 19.9781 7.87289C19.9805 7.86673 19.9803 7.8697 19.9732 7.87923C19.9661 7.88866 19.9554 7.90031 19.9415 7.91174L21.2133 9.4553C21.6957 9.0578 22.1846 8.26966 21.8717 7.37329L19.9834 8.03248ZM2.98426 13.9675C2.9967 14.0032 3.00117 14.0397 2.99974 14.0714C2.99839 14.1016 2.99209 14.1206 2.98954 14.1271C2.98713 14.1333 2.98738 14.1303 2.99452 14.1208C3.00158 14.1114 3.01228 14.0997 3.02616 14.0883L1.75438 12.5447C1.27193 12.9422 0.783085 13.7303 1.09601 14.6267L2.98426 13.9675ZM18.4013 5.23282C18.4166 5.22921 18.4293 5.22795 18.438 5.2278C18.4467 5.22766 18.4472 5.2287 18.4402 5.22705C18.4328 5.22534 18.4156 5.22028 18.3927 5.20707C18.3689 5.19336 18.3435 5.17339 18.3212 5.14738L19.84 3.84604C19.2957 3.21088 18.4937 3.1562 17.9424 3.28619L18.4013 5.23282ZM4.64646 5.14735C4.62417 5.17336 4.59881 5.19333 4.57503 5.20704C4.55213 5.22025 4.53488 5.22531 4.52752 5.22702C4.52046 5.22867 4.52103 5.22763 4.52973 5.22777C4.53835 5.22792 4.55109 5.22918 4.56639 5.23279L5.02541 3.28617C4.47405 3.15616 3.67201 3.21083 3.12774 3.846L4.64646 5.14735ZM19.9415 14.0883C19.9554 14.0997 19.9661 14.1113 19.9732 14.1208C19.9803 14.1303 19.9805 14.1333 19.9781 14.1271C19.9756 14.1206 19.9693 14.1016 19.9679 14.0714C19.9665 14.0396 19.971 14.0032 19.9834 13.9675L21.8717 14.6267C22.1846 13.7303 21.6957 12.9422 21.2133 12.5447L19.9415 14.0883ZM15.5353 1.78967C15.4075 1.23766 15.0027 0.541263 14.1901 0.335645L13.6995 2.27453C13.6661 2.26608 13.6368 2.25215 13.6138 2.23684C13.5917 2.2221 13.5794 2.2088 13.5746 2.20294C13.57 2.19732 13.5712 2.19737 13.5749 2.20528C13.5787 2.21312 13.5832 2.22516 13.5868 2.24054L15.5353 1.78967ZM17.154 5.3265C17.5751 5.36113 17.9961 5.32836 18.4013 5.23282L17.9424 3.28619C17.7386 3.33422 17.5278 3.35049 17.3179 3.33323L17.154 5.3265ZM13.5868 2.24054C13.6662 2.58404 13.7909 2.91696 13.9584 3.22981L15.7216 2.28597C15.6378 2.12941 15.5752 1.96234 15.5353 1.78967L13.5868 2.24054ZM7.27246 19.7645C7.34321 19.9063 7.39694 20.056 7.43259 20.2102L9.38115 19.7595C9.31022 19.4528 9.20326 19.1545 9.06199 18.8715L7.27246 19.7645ZM5.02528 18.7135C5.25241 18.6599 5.48834 18.6459 5.72188 18.6737L5.95839 16.6877C5.4892 16.6318 5.01787 16.6604 4.56614 16.7669L5.02528 18.7135Z" fill="black"/>
</svg>
