<svg width="22" height="17" viewBox="0 0 22 17" fill="none" xmlns="http://www.w3.org/2000/svg">
<path d="M7.05868 4.40426C7.05868 3.99004 7.39446 3.65426 7.80868 3.65426C8.22289 3.65426 8.55868 3.99004 8.55868 4.40426H7.05868ZM11.2129 1.75C10.7987 1.75 10.4629 1.41421 10.4629 1C10.4629 0.585786 10.7987 0.25 11.2129 0.25V1.75ZM8.55868 4.40426C8.55868 5.87016 9.74703 7.05851 11.2129 7.05851V8.55851C8.9186 8.55851 7.05868 6.69859 7.05868 4.40426H8.55868ZM11.2129 7.05851C12.6788 7.05851 13.8672 5.87016 13.8672 4.40426H15.3672C15.3672 6.69859 13.5073 8.55851 11.2129 8.55851V7.05851ZM13.8672 4.40426C13.8672 2.93835 12.6788 1.75 11.2129 1.75V0.25C13.5073 0.25 15.3672 2.10992 15.3672 4.40426H13.8672Z" fill="#070707"/>
<path d="M5.25537 12.8594C5.25537 12.1272 5.71567 11.474 6.40524 11.2277V11.2277C9.51413 10.1174 12.9115 10.1174 16.0204 11.2277V11.2277C16.71 11.474 17.1703 12.1272 17.1703 12.8594V13.979C17.1703 14.9896 16.2752 15.7659 15.2748 15.6229L14.9412 15.5753C12.4682 15.222 9.95746 15.222 7.48442 15.5753L7.15087 15.6229C6.15044 15.7659 5.25537 14.9896 5.25537 13.979V12.8594Z" stroke="#070707" stroke-width="1.5"/>
<path d="M16.3194 7.90228C17.7966 7.90228 18.9941 6.70474 18.9941 5.22751C18.9941 3.75027 17.7966 2.55273 16.3194 2.55273" stroke="#070707" stroke-width="1.5" stroke-linecap="round"/>
<path d="M19.2488 14.0046L19.5109 14.042C20.2969 14.1543 21.0002 13.5444 21.0002 12.7503V11.8707C21.0002 11.2953 20.6385 10.7821 20.0967 10.5886C19.5563 10.3956 19.0048 10.2453 18.447 10.1377" stroke="#070707" stroke-width="1.5" stroke-linecap="round"/>
<path d="M5.68063 7.90228C4.2034 7.90228 3.00586 6.70474 3.00586 5.22751C3.00586 3.75027 4.2034 2.55273 5.68063 2.55273" stroke="#070707" stroke-width="1.5" stroke-linecap="round"/>
<path d="M2.75118 14.0046L2.48911 14.042C1.70306 14.1543 0.999787 13.5444 0.999787 12.7503V11.8707C0.999787 11.2953 1.36145 10.7821 1.90325 10.5886C2.4437 10.3956 2.99525 10.2453 3.55298 10.1377" stroke="#070707" stroke-width="1.5" stroke-linecap="round"/>
</svg>
